<mxfile host="app.diagrams.net" agent="Mozilla/5.0 (Macintosh; Intel Mac OS X 10_15_7) AppleWebKit/537.36 (KHTML, like Gecko) Chrome/127.0.0.0 Safari/537.36" version="24.7.6">
  <diagram name="Page-1" id="-H_mtQnk-PTXWXPvYvuk">
    <mxGraphModel dx="7736" dy="3444" grid="1" gridSize="10" guides="1" tooltips="1" connect="1" arrows="1" fold="1" page="0" pageScale="1" pageWidth="1169" pageHeight="827" math="0" shadow="0">
      <root>
        <mxCell id="0" />
        <mxCell id="1" parent="0" />
        <mxCell id="Usay778_qNBnWEz8IT-f-153" value="" style="rounded=0;whiteSpace=wrap;html=1;dashed=1;fillColor=none;" vertex="1" parent="1">
          <mxGeometry x="-1640" y="-280" width="560" height="1360" as="geometry" />
        </mxCell>
        <mxCell id="Usay778_qNBnWEz8IT-f-7" value="" style="rounded=0;whiteSpace=wrap;html=1;dashed=1;fillColor=#B3FF66;" vertex="1" parent="1">
          <mxGeometry x="715" y="710" width="120" height="300" as="geometry" />
        </mxCell>
        <mxCell id="zA23MoTUsTF4_91t8viU-2" value="MongoDB" style="shape=cylinder3;whiteSpace=wrap;html=1;boundedLbl=1;backgroundOutline=1;size=15;" parent="1" vertex="1">
          <mxGeometry x="-1280" y="490" width="60" height="80" as="geometry" />
        </mxCell>
        <mxCell id="zA23MoTUsTF4_91t8viU-3" value="pymongo-api" style="rounded=1;whiteSpace=wrap;html=1;" parent="1" vertex="1">
          <mxGeometry x="-1480" y="500" width="120" height="60" as="geometry" />
        </mxCell>
        <mxCell id="zA23MoTUsTF4_91t8viU-4" style="edgeStyle=orthogonalEdgeStyle;rounded=0;orthogonalLoop=1;jettySize=auto;html=1;exitX=1;exitY=0.5;exitDx=0;exitDy=0;entryX=0;entryY=0.5;entryDx=0;entryDy=0;entryPerimeter=0;" parent="1" source="zA23MoTUsTF4_91t8viU-3" target="zA23MoTUsTF4_91t8viU-2" edge="1">
          <mxGeometry relative="1" as="geometry" />
        </mxCell>
        <mxCell id="Usay778_qNBnWEz8IT-f-20" style="edgeStyle=orthogonalEdgeStyle;rounded=0;orthogonalLoop=1;jettySize=auto;html=1;exitX=0.5;exitY=1;exitDx=0;exitDy=0;entryX=0.5;entryY=0;entryDx=0;entryDy=0;fillColor=#d5e8d4;strokeColor=#82b366;" edge="1" parent="1" source="Usay778_qNBnWEz8IT-f-2" target="Usay778_qNBnWEz8IT-f-6">
          <mxGeometry relative="1" as="geometry">
            <Array as="points">
              <mxPoint x="770" y="540" />
              <mxPoint x="885" y="540" />
            </Array>
          </mxGeometry>
        </mxCell>
        <mxCell id="Usay778_qNBnWEz8IT-f-70" style="edgeStyle=orthogonalEdgeStyle;rounded=0;orthogonalLoop=1;jettySize=auto;html=1;exitX=1;exitY=0.5;exitDx=0;exitDy=0;" edge="1" parent="1">
          <mxGeometry relative="1" as="geometry">
            <mxPoint x="1190" y="210" as="targetPoint" />
            <mxPoint x="830" y="330" as="sourcePoint" />
            <Array as="points">
              <mxPoint x="850" y="330" />
              <mxPoint x="850" y="250" />
              <mxPoint x="1191" y="250" />
              <mxPoint x="1191" y="210" />
            </Array>
          </mxGeometry>
        </mxCell>
        <mxCell id="Usay778_qNBnWEz8IT-f-80" style="edgeStyle=orthogonalEdgeStyle;rounded=0;orthogonalLoop=1;jettySize=auto;html=1;exitX=0.75;exitY=1;exitDx=0;exitDy=0;entryX=0.5;entryY=0;entryDx=0;entryDy=0;fillColor=#f8cecc;strokeColor=#b85450;" edge="1" parent="1" source="Usay778_qNBnWEz8IT-f-2" target="Usay778_qNBnWEz8IT-f-21">
          <mxGeometry relative="1" as="geometry" />
        </mxCell>
        <mxCell id="Usay778_qNBnWEz8IT-f-2" value="pymongo-api&lt;br&gt;instance 1" style="rounded=1;whiteSpace=wrap;html=1;" vertex="1" parent="1">
          <mxGeometry x="710" y="310" width="120" height="60" as="geometry" />
        </mxCell>
        <mxCell id="Usay778_qNBnWEz8IT-f-4" value="MongoDB&lt;br&gt;primary repl" style="shape=cylinder3;whiteSpace=wrap;html=1;boundedLbl=1;backgroundOutline=1;size=15;" vertex="1" parent="1">
          <mxGeometry x="745" y="744" width="60" height="80" as="geometry" />
        </mxCell>
        <mxCell id="Usay778_qNBnWEz8IT-f-17" style="edgeStyle=orthogonalEdgeStyle;rounded=0;orthogonalLoop=1;jettySize=auto;html=1;exitX=0.5;exitY=1;exitDx=0;exitDy=0;entryX=0.5;entryY=0;entryDx=0;entryDy=0;fillColor=#d5e8d4;strokeColor=#82b366;" edge="1" parent="1" source="Usay778_qNBnWEz8IT-f-6" target="Usay778_qNBnWEz8IT-f-8">
          <mxGeometry relative="1" as="geometry" />
        </mxCell>
        <mxCell id="Usay778_qNBnWEz8IT-f-18" style="edgeStyle=orthogonalEdgeStyle;rounded=0;orthogonalLoop=1;jettySize=auto;html=1;exitX=0.5;exitY=1;exitDx=0;exitDy=0;entryX=0.5;entryY=0;entryDx=0;entryDy=0;fillColor=#d5e8d4;strokeColor=#82b366;" edge="1" parent="1" source="Usay778_qNBnWEz8IT-f-6" target="Usay778_qNBnWEz8IT-f-13">
          <mxGeometry relative="1" as="geometry" />
        </mxCell>
        <mxCell id="Usay778_qNBnWEz8IT-f-19" style="edgeStyle=orthogonalEdgeStyle;rounded=0;orthogonalLoop=1;jettySize=auto;html=1;exitX=1;exitY=0.5;exitDx=0;exitDy=0;entryX=0;entryY=0.5;entryDx=0;entryDy=0;fillColor=#d5e8d4;strokeColor=#82b366;" edge="1" parent="1" source="Usay778_qNBnWEz8IT-f-6" target="Usay778_qNBnWEz8IT-f-16">
          <mxGeometry relative="1" as="geometry" />
        </mxCell>
        <mxCell id="Usay778_qNBnWEz8IT-f-6" value="mongodb-router" style="rounded=1;whiteSpace=wrap;html=1;fillColor=#CCFFCC;" vertex="1" parent="1">
          <mxGeometry x="825" y="610" width="120" height="60" as="geometry" />
        </mxCell>
        <mxCell id="Usay778_qNBnWEz8IT-f-8" value="Shard1" style="text;html=1;align=center;verticalAlign=middle;whiteSpace=wrap;rounded=0;" vertex="1" parent="1">
          <mxGeometry x="745" y="710" width="60" height="30" as="geometry" />
        </mxCell>
        <mxCell id="Usay778_qNBnWEz8IT-f-9" value="MongoDB&lt;br&gt;secondary repl" style="shape=cylinder3;whiteSpace=wrap;html=1;boundedLbl=1;backgroundOutline=1;size=15;" vertex="1" parent="1">
          <mxGeometry x="745" y="830" width="60" height="80" as="geometry" />
        </mxCell>
        <mxCell id="Usay778_qNBnWEz8IT-f-10" value="MongoDB&lt;br&gt;secondary repl" style="shape=cylinder3;whiteSpace=wrap;html=1;boundedLbl=1;backgroundOutline=1;size=15;" vertex="1" parent="1">
          <mxGeometry x="745" y="920" width="60" height="80" as="geometry" />
        </mxCell>
        <mxCell id="Usay778_qNBnWEz8IT-f-11" value="" style="rounded=0;whiteSpace=wrap;html=1;dashed=1;fillColor=#B3FF66;" vertex="1" parent="1">
          <mxGeometry x="925" y="710" width="120" height="300" as="geometry" />
        </mxCell>
        <mxCell id="Usay778_qNBnWEz8IT-f-12" value="MongoDB&lt;br&gt;primary repl" style="shape=cylinder3;whiteSpace=wrap;html=1;boundedLbl=1;backgroundOutline=1;size=15;" vertex="1" parent="1">
          <mxGeometry x="955" y="744" width="60" height="80" as="geometry" />
        </mxCell>
        <mxCell id="Usay778_qNBnWEz8IT-f-13" value="Shard2" style="text;html=1;align=center;verticalAlign=middle;whiteSpace=wrap;rounded=0;" vertex="1" parent="1">
          <mxGeometry x="955" y="710" width="60" height="30" as="geometry" />
        </mxCell>
        <mxCell id="Usay778_qNBnWEz8IT-f-14" value="MongoDB&lt;br&gt;secondary repl" style="shape=cylinder3;whiteSpace=wrap;html=1;boundedLbl=1;backgroundOutline=1;size=15;" vertex="1" parent="1">
          <mxGeometry x="955" y="830" width="60" height="80" as="geometry" />
        </mxCell>
        <mxCell id="Usay778_qNBnWEz8IT-f-15" value="MongoDB&lt;br&gt;secondary repl" style="shape=cylinder3;whiteSpace=wrap;html=1;boundedLbl=1;backgroundOutline=1;size=15;" vertex="1" parent="1">
          <mxGeometry x="955" y="920" width="60" height="80" as="geometry" />
        </mxCell>
        <mxCell id="Usay778_qNBnWEz8IT-f-16" value="mondodb-config-srv" style="rounded=0;whiteSpace=wrap;html=1;fillColor=#fff2cc;strokeColor=#d6b656;" vertex="1" parent="1">
          <mxGeometry x="1125" y="610" width="120" height="60" as="geometry" />
        </mxCell>
        <mxCell id="Usay778_qNBnWEz8IT-f-21" value="Redis&lt;br&gt;cluster" style="rounded=0;whiteSpace=wrap;html=1;fillColor=#f8cecc;strokeColor=#b85450;" vertex="1" parent="1">
          <mxGeometry x="820" y="420" width="120" height="60" as="geometry" />
        </mxCell>
        <mxCell id="Usay778_qNBnWEz8IT-f-42" value="" style="rounded=0;whiteSpace=wrap;html=1;dashed=1;fillColor=#B3FF66;" vertex="1" parent="1">
          <mxGeometry x="60" y="710" width="120" height="300" as="geometry" />
        </mxCell>
        <mxCell id="Usay778_qNBnWEz8IT-f-43" style="edgeStyle=orthogonalEdgeStyle;rounded=0;orthogonalLoop=1;jettySize=auto;html=1;exitX=0.5;exitY=1;exitDx=0;exitDy=0;entryX=0.5;entryY=0;entryDx=0;entryDy=0;" edge="1" parent="1" source="Usay778_qNBnWEz8IT-f-45" target="Usay778_qNBnWEz8IT-f-50">
          <mxGeometry relative="1" as="geometry" />
        </mxCell>
        <mxCell id="Usay778_qNBnWEz8IT-f-44" style="edgeStyle=orthogonalEdgeStyle;rounded=0;orthogonalLoop=1;jettySize=auto;html=1;exitX=1;exitY=0.5;exitDx=0;exitDy=0;entryX=0;entryY=0.5;entryDx=0;entryDy=0;" edge="1" parent="1" source="Usay778_qNBnWEz8IT-f-45" target="Usay778_qNBnWEz8IT-f-60">
          <mxGeometry relative="1" as="geometry" />
        </mxCell>
        <mxCell id="Usay778_qNBnWEz8IT-f-45" value="pymongo-api" style="rounded=1;whiteSpace=wrap;html=1;" vertex="1" parent="1">
          <mxGeometry x="170" y="500" width="120" height="60" as="geometry" />
        </mxCell>
        <mxCell id="Usay778_qNBnWEz8IT-f-46" value="MongoDB&lt;br&gt;primary repl" style="shape=cylinder3;whiteSpace=wrap;html=1;boundedLbl=1;backgroundOutline=1;size=15;" vertex="1" parent="1">
          <mxGeometry x="90" y="744" width="60" height="80" as="geometry" />
        </mxCell>
        <mxCell id="Usay778_qNBnWEz8IT-f-47" style="edgeStyle=orthogonalEdgeStyle;rounded=0;orthogonalLoop=1;jettySize=auto;html=1;exitX=0.5;exitY=1;exitDx=0;exitDy=0;entryX=0.5;entryY=0;entryDx=0;entryDy=0;" edge="1" parent="1" source="Usay778_qNBnWEz8IT-f-50" target="Usay778_qNBnWEz8IT-f-51">
          <mxGeometry relative="1" as="geometry" />
        </mxCell>
        <mxCell id="Usay778_qNBnWEz8IT-f-48" style="edgeStyle=orthogonalEdgeStyle;rounded=0;orthogonalLoop=1;jettySize=auto;html=1;exitX=0.5;exitY=1;exitDx=0;exitDy=0;entryX=0.5;entryY=0;entryDx=0;entryDy=0;" edge="1" parent="1" source="Usay778_qNBnWEz8IT-f-50" target="Usay778_qNBnWEz8IT-f-56">
          <mxGeometry relative="1" as="geometry" />
        </mxCell>
        <mxCell id="Usay778_qNBnWEz8IT-f-49" style="edgeStyle=orthogonalEdgeStyle;rounded=0;orthogonalLoop=1;jettySize=auto;html=1;exitX=1;exitY=0.5;exitDx=0;exitDy=0;entryX=0;entryY=0.5;entryDx=0;entryDy=0;" edge="1" parent="1" source="Usay778_qNBnWEz8IT-f-50" target="Usay778_qNBnWEz8IT-f-59">
          <mxGeometry relative="1" as="geometry" />
        </mxCell>
        <mxCell id="Usay778_qNBnWEz8IT-f-50" value="mongodb-router" style="rounded=1;whiteSpace=wrap;html=1;fillColor=#CCFFCC;" vertex="1" parent="1">
          <mxGeometry x="170" y="610" width="120" height="60" as="geometry" />
        </mxCell>
        <mxCell id="Usay778_qNBnWEz8IT-f-51" value="Shard1" style="text;html=1;align=center;verticalAlign=middle;whiteSpace=wrap;rounded=0;" vertex="1" parent="1">
          <mxGeometry x="90" y="710" width="60" height="30" as="geometry" />
        </mxCell>
        <mxCell id="Usay778_qNBnWEz8IT-f-52" value="MongoDB&lt;br&gt;secondary repl" style="shape=cylinder3;whiteSpace=wrap;html=1;boundedLbl=1;backgroundOutline=1;size=15;" vertex="1" parent="1">
          <mxGeometry x="90" y="830" width="60" height="80" as="geometry" />
        </mxCell>
        <mxCell id="Usay778_qNBnWEz8IT-f-53" value="MongoDB&lt;br&gt;secondary repl" style="shape=cylinder3;whiteSpace=wrap;html=1;boundedLbl=1;backgroundOutline=1;size=15;" vertex="1" parent="1">
          <mxGeometry x="90" y="920" width="60" height="80" as="geometry" />
        </mxCell>
        <mxCell id="Usay778_qNBnWEz8IT-f-54" value="" style="rounded=0;whiteSpace=wrap;html=1;dashed=1;fillColor=#B3FF66;" vertex="1" parent="1">
          <mxGeometry x="270" y="710" width="120" height="300" as="geometry" />
        </mxCell>
        <mxCell id="Usay778_qNBnWEz8IT-f-55" value="MongoDB&lt;br&gt;primary repl" style="shape=cylinder3;whiteSpace=wrap;html=1;boundedLbl=1;backgroundOutline=1;size=15;" vertex="1" parent="1">
          <mxGeometry x="300" y="744" width="60" height="80" as="geometry" />
        </mxCell>
        <mxCell id="Usay778_qNBnWEz8IT-f-56" value="Shard2" style="text;html=1;align=center;verticalAlign=middle;whiteSpace=wrap;rounded=0;" vertex="1" parent="1">
          <mxGeometry x="300" y="710" width="60" height="30" as="geometry" />
        </mxCell>
        <mxCell id="Usay778_qNBnWEz8IT-f-57" value="MongoDB&lt;br&gt;secondary repl" style="shape=cylinder3;whiteSpace=wrap;html=1;boundedLbl=1;backgroundOutline=1;size=15;" vertex="1" parent="1">
          <mxGeometry x="300" y="830" width="60" height="80" as="geometry" />
        </mxCell>
        <mxCell id="Usay778_qNBnWEz8IT-f-58" value="MongoDB&lt;br&gt;secondary repl" style="shape=cylinder3;whiteSpace=wrap;html=1;boundedLbl=1;backgroundOutline=1;size=15;" vertex="1" parent="1">
          <mxGeometry x="300" y="920" width="60" height="80" as="geometry" />
        </mxCell>
        <mxCell id="Usay778_qNBnWEz8IT-f-59" value="mondodb-config-srv" style="rounded=0;whiteSpace=wrap;html=1;fillColor=#fff2cc;strokeColor=#d6b656;" vertex="1" parent="1">
          <mxGeometry x="380" y="610" width="120" height="60" as="geometry" />
        </mxCell>
        <mxCell id="Usay778_qNBnWEz8IT-f-60" value="Redis" style="rounded=0;whiteSpace=wrap;html=1;fillColor=#f8cecc;strokeColor=#b85450;" vertex="1" parent="1">
          <mxGeometry x="380" y="500" width="120" height="60" as="geometry" />
        </mxCell>
        <mxCell id="Usay778_qNBnWEz8IT-f-79" style="edgeStyle=orthogonalEdgeStyle;rounded=0;orthogonalLoop=1;jettySize=auto;html=1;exitX=1;exitY=0.5;exitDx=0;exitDy=0;entryX=0;entryY=0.5;entryDx=0;entryDy=0;" edge="1" parent="1" source="Usay778_qNBnWEz8IT-f-61" target="Usay778_qNBnWEz8IT-f-62">
          <mxGeometry relative="1" as="geometry" />
        </mxCell>
        <mxCell id="Usay778_qNBnWEz8IT-f-61" value="API Gateway&lt;br&gt;(Traefik)" style="rounded=0;whiteSpace=wrap;html=1;fillColor=#dae8fc;strokeColor=#6c8ebf;" vertex="1" parent="1">
          <mxGeometry x="700" y="150" width="390" height="60" as="geometry" />
        </mxCell>
        <mxCell id="Usay778_qNBnWEz8IT-f-62" value="Service Discovery&lt;br&gt;(Consul)" style="rounded=0;whiteSpace=wrap;html=1;fillColor=#ffe6cc;strokeColor=#d79b00;" vertex="1" parent="1">
          <mxGeometry x="1120" y="150" width="120" height="60" as="geometry" />
        </mxCell>
        <mxCell id="Usay778_qNBnWEz8IT-f-64" style="edgeStyle=orthogonalEdgeStyle;rounded=0;orthogonalLoop=1;jettySize=auto;html=1;exitX=0.5;exitY=1;exitDx=0;exitDy=0;entryX=0.5;entryY=0;entryDx=0;entryDy=0;fillColor=#d5e8d4;strokeColor=#82b366;" edge="1" parent="1" source="Usay778_qNBnWEz8IT-f-63" target="Usay778_qNBnWEz8IT-f-6">
          <mxGeometry relative="1" as="geometry">
            <Array as="points">
              <mxPoint x="980" y="540" />
              <mxPoint x="885" y="540" />
            </Array>
          </mxGeometry>
        </mxCell>
        <mxCell id="Usay778_qNBnWEz8IT-f-73" style="edgeStyle=orthogonalEdgeStyle;rounded=0;orthogonalLoop=1;jettySize=auto;html=1;exitX=0.75;exitY=0;exitDx=0;exitDy=0;" edge="1" parent="1" source="Usay778_qNBnWEz8IT-f-63">
          <mxGeometry relative="1" as="geometry">
            <mxPoint x="1190" y="210" as="targetPoint" />
            <Array as="points">
              <mxPoint x="1010" y="250" />
              <mxPoint x="1190" y="250" />
            </Array>
          </mxGeometry>
        </mxCell>
        <mxCell id="Usay778_qNBnWEz8IT-f-81" style="edgeStyle=orthogonalEdgeStyle;rounded=0;orthogonalLoop=1;jettySize=auto;html=1;exitX=0.25;exitY=1;exitDx=0;exitDy=0;fillColor=#f8cecc;strokeColor=#b85450;" edge="1" parent="1" source="Usay778_qNBnWEz8IT-f-63">
          <mxGeometry relative="1" as="geometry">
            <mxPoint x="880" y="420" as="targetPoint" />
          </mxGeometry>
        </mxCell>
        <mxCell id="Usay778_qNBnWEz8IT-f-63" value="pymongo-api&lt;br&gt;instance N" style="rounded=1;whiteSpace=wrap;html=1;" vertex="1" parent="1">
          <mxGeometry x="920" y="310" width="120" height="60" as="geometry" />
        </mxCell>
        <mxCell id="Usay778_qNBnWEz8IT-f-67" style="edgeStyle=orthogonalEdgeStyle;rounded=0;orthogonalLoop=1;jettySize=auto;html=1;exitX=0.166;exitY=1.004;exitDx=0;exitDy=0;entryX=0.458;entryY=-0.019;entryDx=0;entryDy=0;entryPerimeter=0;fillColor=#dae8fc;strokeColor=#6c8ebf;exitPerimeter=0;" edge="1" parent="1" source="Usay778_qNBnWEz8IT-f-61" target="Usay778_qNBnWEz8IT-f-2">
          <mxGeometry relative="1" as="geometry" />
        </mxCell>
        <mxCell id="Usay778_qNBnWEz8IT-f-68" style="edgeStyle=orthogonalEdgeStyle;rounded=0;orthogonalLoop=1;jettySize=auto;html=1;exitX=0.75;exitY=1;exitDx=0;exitDy=0;entryX=0.607;entryY=0.04;entryDx=0;entryDy=0;entryPerimeter=0;fillColor=#dae8fc;strokeColor=#6c8ebf;" edge="1" parent="1" source="Usay778_qNBnWEz8IT-f-61" target="Usay778_qNBnWEz8IT-f-63">
          <mxGeometry relative="1" as="geometry" />
        </mxCell>
        <mxCell id="Usay778_qNBnWEz8IT-f-74" value="Frontend (React)" style="rounded=0;whiteSpace=wrap;html=1;" vertex="1" parent="1">
          <mxGeometry x="700" y="20" width="540" height="60" as="geometry" />
        </mxCell>
        <mxCell id="Usay778_qNBnWEz8IT-f-75" value="User" style="shape=umlActor;verticalLabelPosition=bottom;verticalAlign=top;html=1;outlineConnect=0;" vertex="1" parent="1">
          <mxGeometry x="955" y="-140" width="30" height="60" as="geometry" />
        </mxCell>
        <mxCell id="Usay778_qNBnWEz8IT-f-77" value="" style="endArrow=classic;html=1;rounded=0;entryX=0.5;entryY=0;entryDx=0;entryDy=0;" edge="1" parent="1" target="Usay778_qNBnWEz8IT-f-74">
          <mxGeometry width="50" height="50" relative="1" as="geometry">
            <mxPoint x="970" y="-50" as="sourcePoint" />
            <mxPoint x="1080" y="10" as="targetPoint" />
          </mxGeometry>
        </mxCell>
        <mxCell id="Usay778_qNBnWEz8IT-f-78" style="edgeStyle=orthogonalEdgeStyle;rounded=0;orthogonalLoop=1;jettySize=auto;html=1;exitX=0.5;exitY=1;exitDx=0;exitDy=0;entryX=0.69;entryY=-0.012;entryDx=0;entryDy=0;entryPerimeter=0;" edge="1" parent="1" source="Usay778_qNBnWEz8IT-f-74" target="Usay778_qNBnWEz8IT-f-61">
          <mxGeometry relative="1" as="geometry" />
        </mxCell>
        <mxCell id="Usay778_qNBnWEz8IT-f-82" value="" style="rounded=0;whiteSpace=wrap;html=1;dashed=1;fillColor=#B3FF66;" vertex="1" parent="1">
          <mxGeometry x="1575" y="710" width="120" height="300" as="geometry" />
        </mxCell>
        <mxCell id="Usay778_qNBnWEz8IT-f-83" style="edgeStyle=orthogonalEdgeStyle;rounded=0;orthogonalLoop=1;jettySize=auto;html=1;exitX=0.5;exitY=1;exitDx=0;exitDy=0;entryX=0.5;entryY=0;entryDx=0;entryDy=0;fillColor=#d5e8d4;strokeColor=#82b366;" edge="1" parent="1" source="Usay778_qNBnWEz8IT-f-86" target="Usay778_qNBnWEz8IT-f-91">
          <mxGeometry relative="1" as="geometry">
            <Array as="points">
              <mxPoint x="1630" y="540" />
              <mxPoint x="1745" y="540" />
            </Array>
          </mxGeometry>
        </mxCell>
        <mxCell id="Usay778_qNBnWEz8IT-f-84" style="edgeStyle=orthogonalEdgeStyle;rounded=0;orthogonalLoop=1;jettySize=auto;html=1;exitX=1;exitY=0.5;exitDx=0;exitDy=0;" edge="1" parent="1">
          <mxGeometry relative="1" as="geometry">
            <mxPoint x="2050" y="210" as="targetPoint" />
            <mxPoint x="1690" y="330" as="sourcePoint" />
            <Array as="points">
              <mxPoint x="1710" y="330" />
              <mxPoint x="1710" y="250" />
              <mxPoint x="2051" y="250" />
              <mxPoint x="2051" y="210" />
            </Array>
          </mxGeometry>
        </mxCell>
        <mxCell id="Usay778_qNBnWEz8IT-f-85" style="edgeStyle=orthogonalEdgeStyle;rounded=0;orthogonalLoop=1;jettySize=auto;html=1;exitX=0.75;exitY=1;exitDx=0;exitDy=0;entryX=0.5;entryY=0;entryDx=0;entryDy=0;fillColor=#f8cecc;strokeColor=#b85450;" edge="1" parent="1" source="Usay778_qNBnWEz8IT-f-86" target="Usay778_qNBnWEz8IT-f-101">
          <mxGeometry relative="1" as="geometry" />
        </mxCell>
        <mxCell id="Usay778_qNBnWEz8IT-f-86" value="pymongo-api&lt;br&gt;instance 1" style="rounded=1;whiteSpace=wrap;html=1;" vertex="1" parent="1">
          <mxGeometry x="1570" y="310" width="120" height="60" as="geometry" />
        </mxCell>
        <mxCell id="Usay778_qNBnWEz8IT-f-87" value="MongoDB&lt;br&gt;primary repl" style="shape=cylinder3;whiteSpace=wrap;html=1;boundedLbl=1;backgroundOutline=1;size=15;" vertex="1" parent="1">
          <mxGeometry x="1605" y="744" width="60" height="80" as="geometry" />
        </mxCell>
        <mxCell id="Usay778_qNBnWEz8IT-f-88" style="edgeStyle=orthogonalEdgeStyle;rounded=0;orthogonalLoop=1;jettySize=auto;html=1;exitX=0.5;exitY=1;exitDx=0;exitDy=0;entryX=0.5;entryY=0;entryDx=0;entryDy=0;fillColor=#d5e8d4;strokeColor=#82b366;" edge="1" parent="1" source="Usay778_qNBnWEz8IT-f-91" target="Usay778_qNBnWEz8IT-f-92">
          <mxGeometry relative="1" as="geometry" />
        </mxCell>
        <mxCell id="Usay778_qNBnWEz8IT-f-89" style="edgeStyle=orthogonalEdgeStyle;rounded=0;orthogonalLoop=1;jettySize=auto;html=1;exitX=0.5;exitY=1;exitDx=0;exitDy=0;entryX=0.5;entryY=0;entryDx=0;entryDy=0;fillColor=#d5e8d4;strokeColor=#82b366;" edge="1" parent="1" source="Usay778_qNBnWEz8IT-f-91" target="Usay778_qNBnWEz8IT-f-97">
          <mxGeometry relative="1" as="geometry" />
        </mxCell>
        <mxCell id="Usay778_qNBnWEz8IT-f-90" style="edgeStyle=orthogonalEdgeStyle;rounded=0;orthogonalLoop=1;jettySize=auto;html=1;exitX=1;exitY=0.5;exitDx=0;exitDy=0;entryX=0;entryY=0.5;entryDx=0;entryDy=0;fillColor=#d5e8d4;strokeColor=#82b366;" edge="1" parent="1" source="Usay778_qNBnWEz8IT-f-91" target="Usay778_qNBnWEz8IT-f-100">
          <mxGeometry relative="1" as="geometry" />
        </mxCell>
        <mxCell id="Usay778_qNBnWEz8IT-f-91" value="mongodb-router" style="rounded=1;whiteSpace=wrap;html=1;fillColor=#CCFFCC;" vertex="1" parent="1">
          <mxGeometry x="1685" y="610" width="120" height="60" as="geometry" />
        </mxCell>
        <mxCell id="Usay778_qNBnWEz8IT-f-92" value="Shard1" style="text;html=1;align=center;verticalAlign=middle;whiteSpace=wrap;rounded=0;" vertex="1" parent="1">
          <mxGeometry x="1605" y="710" width="60" height="30" as="geometry" />
        </mxCell>
        <mxCell id="Usay778_qNBnWEz8IT-f-93" value="MongoDB&lt;br&gt;secondary repl" style="shape=cylinder3;whiteSpace=wrap;html=1;boundedLbl=1;backgroundOutline=1;size=15;" vertex="1" parent="1">
          <mxGeometry x="1605" y="830" width="60" height="80" as="geometry" />
        </mxCell>
        <mxCell id="Usay778_qNBnWEz8IT-f-94" value="MongoDB&lt;br&gt;secondary repl" style="shape=cylinder3;whiteSpace=wrap;html=1;boundedLbl=1;backgroundOutline=1;size=15;" vertex="1" parent="1">
          <mxGeometry x="1605" y="920" width="60" height="80" as="geometry" />
        </mxCell>
        <mxCell id="Usay778_qNBnWEz8IT-f-95" value="" style="rounded=0;whiteSpace=wrap;html=1;dashed=1;fillColor=#B3FF66;" vertex="1" parent="1">
          <mxGeometry x="1785" y="710" width="120" height="300" as="geometry" />
        </mxCell>
        <mxCell id="Usay778_qNBnWEz8IT-f-96" value="MongoDB&lt;br&gt;primary repl" style="shape=cylinder3;whiteSpace=wrap;html=1;boundedLbl=1;backgroundOutline=1;size=15;" vertex="1" parent="1">
          <mxGeometry x="1815" y="744" width="60" height="80" as="geometry" />
        </mxCell>
        <mxCell id="Usay778_qNBnWEz8IT-f-97" value="Shard2" style="text;html=1;align=center;verticalAlign=middle;whiteSpace=wrap;rounded=0;" vertex="1" parent="1">
          <mxGeometry x="1815" y="710" width="60" height="30" as="geometry" />
        </mxCell>
        <mxCell id="Usay778_qNBnWEz8IT-f-98" value="MongoDB&lt;br&gt;secondary repl" style="shape=cylinder3;whiteSpace=wrap;html=1;boundedLbl=1;backgroundOutline=1;size=15;" vertex="1" parent="1">
          <mxGeometry x="1815" y="830" width="60" height="80" as="geometry" />
        </mxCell>
        <mxCell id="Usay778_qNBnWEz8IT-f-99" value="MongoDB&lt;br&gt;secondary repl" style="shape=cylinder3;whiteSpace=wrap;html=1;boundedLbl=1;backgroundOutline=1;size=15;" vertex="1" parent="1">
          <mxGeometry x="1815" y="920" width="60" height="80" as="geometry" />
        </mxCell>
        <mxCell id="Usay778_qNBnWEz8IT-f-100" value="mondodb-config-srv" style="rounded=0;whiteSpace=wrap;html=1;fillColor=#fff2cc;strokeColor=#d6b656;" vertex="1" parent="1">
          <mxGeometry x="1985" y="610" width="120" height="60" as="geometry" />
        </mxCell>
        <mxCell id="Usay778_qNBnWEz8IT-f-101" value="Redis&lt;br&gt;cluster" style="rounded=0;whiteSpace=wrap;html=1;fillColor=#f8cecc;strokeColor=#b85450;" vertex="1" parent="1">
          <mxGeometry x="1680" y="420" width="120" height="60" as="geometry" />
        </mxCell>
        <mxCell id="Usay778_qNBnWEz8IT-f-102" style="edgeStyle=orthogonalEdgeStyle;rounded=0;orthogonalLoop=1;jettySize=auto;html=1;exitX=1;exitY=0.5;exitDx=0;exitDy=0;entryX=0;entryY=0.5;entryDx=0;entryDy=0;" edge="1" parent="1" source="Usay778_qNBnWEz8IT-f-103" target="Usay778_qNBnWEz8IT-f-104">
          <mxGeometry relative="1" as="geometry" />
        </mxCell>
        <mxCell id="Usay778_qNBnWEz8IT-f-103" value="API Gateway&lt;br&gt;(Traefik)" style="rounded=0;whiteSpace=wrap;html=1;fillColor=#dae8fc;strokeColor=#6c8ebf;" vertex="1" parent="1">
          <mxGeometry x="1560" y="150" width="390" height="60" as="geometry" />
        </mxCell>
        <mxCell id="Usay778_qNBnWEz8IT-f-104" value="Service Discovery&lt;br&gt;(Consul)" style="rounded=0;whiteSpace=wrap;html=1;fillColor=#ffe6cc;strokeColor=#d79b00;" vertex="1" parent="1">
          <mxGeometry x="1980" y="150" width="120" height="60" as="geometry" />
        </mxCell>
        <mxCell id="Usay778_qNBnWEz8IT-f-105" style="edgeStyle=orthogonalEdgeStyle;rounded=0;orthogonalLoop=1;jettySize=auto;html=1;exitX=0.5;exitY=1;exitDx=0;exitDy=0;entryX=0.5;entryY=0;entryDx=0;entryDy=0;fillColor=#d5e8d4;strokeColor=#82b366;" edge="1" parent="1" source="Usay778_qNBnWEz8IT-f-108" target="Usay778_qNBnWEz8IT-f-91">
          <mxGeometry relative="1" as="geometry">
            <Array as="points">
              <mxPoint x="1840" y="540" />
              <mxPoint x="1745" y="540" />
            </Array>
          </mxGeometry>
        </mxCell>
        <mxCell id="Usay778_qNBnWEz8IT-f-106" style="edgeStyle=orthogonalEdgeStyle;rounded=0;orthogonalLoop=1;jettySize=auto;html=1;exitX=0.75;exitY=0;exitDx=0;exitDy=0;" edge="1" parent="1" source="Usay778_qNBnWEz8IT-f-108">
          <mxGeometry relative="1" as="geometry">
            <mxPoint x="2050" y="210" as="targetPoint" />
            <Array as="points">
              <mxPoint x="1870" y="250" />
              <mxPoint x="2050" y="250" />
            </Array>
          </mxGeometry>
        </mxCell>
        <mxCell id="Usay778_qNBnWEz8IT-f-107" style="edgeStyle=orthogonalEdgeStyle;rounded=0;orthogonalLoop=1;jettySize=auto;html=1;exitX=0.25;exitY=1;exitDx=0;exitDy=0;fillColor=#f8cecc;strokeColor=#b85450;" edge="1" parent="1" source="Usay778_qNBnWEz8IT-f-108">
          <mxGeometry relative="1" as="geometry">
            <mxPoint x="1740" y="420" as="targetPoint" />
          </mxGeometry>
        </mxCell>
        <mxCell id="Usay778_qNBnWEz8IT-f-108" value="pymongo-api&lt;br&gt;instance N" style="rounded=1;whiteSpace=wrap;html=1;" vertex="1" parent="1">
          <mxGeometry x="1780" y="310" width="120" height="60" as="geometry" />
        </mxCell>
        <mxCell id="Usay778_qNBnWEz8IT-f-109" style="edgeStyle=orthogonalEdgeStyle;rounded=0;orthogonalLoop=1;jettySize=auto;html=1;exitX=0.166;exitY=1.004;exitDx=0;exitDy=0;entryX=0.458;entryY=-0.019;entryDx=0;entryDy=0;entryPerimeter=0;fillColor=#dae8fc;strokeColor=#6c8ebf;exitPerimeter=0;" edge="1" parent="1" source="Usay778_qNBnWEz8IT-f-103" target="Usay778_qNBnWEz8IT-f-86">
          <mxGeometry relative="1" as="geometry" />
        </mxCell>
        <mxCell id="Usay778_qNBnWEz8IT-f-110" style="edgeStyle=orthogonalEdgeStyle;rounded=0;orthogonalLoop=1;jettySize=auto;html=1;exitX=0.75;exitY=1;exitDx=0;exitDy=0;entryX=0.607;entryY=0.04;entryDx=0;entryDy=0;entryPerimeter=0;fillColor=#dae8fc;strokeColor=#6c8ebf;" edge="1" parent="1" source="Usay778_qNBnWEz8IT-f-103" target="Usay778_qNBnWEz8IT-f-108">
          <mxGeometry relative="1" as="geometry" />
        </mxCell>
        <mxCell id="Usay778_qNBnWEz8IT-f-111" value="Frontend (React)" style="rounded=0;whiteSpace=wrap;html=1;" vertex="1" parent="1">
          <mxGeometry x="1560" y="20" width="540" height="60" as="geometry" />
        </mxCell>
        <mxCell id="Usay778_qNBnWEz8IT-f-112" value="User" style="shape=umlActor;verticalLabelPosition=bottom;verticalAlign=top;html=1;outlineConnect=0;" vertex="1" parent="1">
          <mxGeometry x="1815" y="-140" width="30" height="60" as="geometry" />
        </mxCell>
        <mxCell id="Usay778_qNBnWEz8IT-f-113" value="" style="endArrow=classic;html=1;rounded=0;entryX=0.5;entryY=0;entryDx=0;entryDy=0;" edge="1" parent="1" target="Usay778_qNBnWEz8IT-f-111">
          <mxGeometry width="50" height="50" relative="1" as="geometry">
            <mxPoint x="1830" y="-50" as="sourcePoint" />
            <mxPoint x="1940" y="10" as="targetPoint" />
          </mxGeometry>
        </mxCell>
        <mxCell id="Usay778_qNBnWEz8IT-f-114" style="edgeStyle=orthogonalEdgeStyle;rounded=0;orthogonalLoop=1;jettySize=auto;html=1;exitX=0.5;exitY=1;exitDx=0;exitDy=0;entryX=0.69;entryY=-0.012;entryDx=0;entryDy=0;entryPerimeter=0;" edge="1" parent="1" source="Usay778_qNBnWEz8IT-f-111" target="Usay778_qNBnWEz8IT-f-103">
          <mxGeometry relative="1" as="geometry" />
        </mxCell>
        <mxCell id="Usay778_qNBnWEz8IT-f-115" value="Cloude CDN&amp;nbsp;&lt;br&gt;regional distribution" style="ellipse;shape=cloud;whiteSpace=wrap;html=1;" vertex="1" parent="1">
          <mxGeometry x="2190" y="150" width="190" height="80" as="geometry" />
        </mxCell>
        <mxCell id="Usay778_qNBnWEz8IT-f-116" style="edgeStyle=orthogonalEdgeStyle;rounded=0;orthogonalLoop=1;jettySize=auto;html=1;exitX=1;exitY=0.5;exitDx=0;exitDy=0;entryX=0.477;entryY=0.125;entryDx=0;entryDy=0;entryPerimeter=0;" edge="1" parent="1" source="Usay778_qNBnWEz8IT-f-111" target="Usay778_qNBnWEz8IT-f-115">
          <mxGeometry relative="1" as="geometry" />
        </mxCell>
        <mxCell id="Usay778_qNBnWEz8IT-f-117" value="" style="rounded=0;whiteSpace=wrap;html=1;dashed=1;fillColor=#B3FF66;" vertex="1" parent="1">
          <mxGeometry x="-480" y="710" width="120" height="300" as="geometry" />
        </mxCell>
        <mxCell id="Usay778_qNBnWEz8IT-f-118" style="edgeStyle=orthogonalEdgeStyle;rounded=0;orthogonalLoop=1;jettySize=auto;html=1;exitX=0.5;exitY=1;exitDx=0;exitDy=0;entryX=0.5;entryY=0;entryDx=0;entryDy=0;" edge="1" parent="1" source="Usay778_qNBnWEz8IT-f-120" target="Usay778_qNBnWEz8IT-f-125">
          <mxGeometry relative="1" as="geometry" />
        </mxCell>
        <mxCell id="Usay778_qNBnWEz8IT-f-120" value="pymongo-api" style="rounded=1;whiteSpace=wrap;html=1;" vertex="1" parent="1">
          <mxGeometry x="-370" y="500" width="120" height="60" as="geometry" />
        </mxCell>
        <mxCell id="Usay778_qNBnWEz8IT-f-121" value="MongoDB&lt;br&gt;primary repl" style="shape=cylinder3;whiteSpace=wrap;html=1;boundedLbl=1;backgroundOutline=1;size=15;" vertex="1" parent="1">
          <mxGeometry x="-450" y="744" width="60" height="80" as="geometry" />
        </mxCell>
        <mxCell id="Usay778_qNBnWEz8IT-f-122" style="edgeStyle=orthogonalEdgeStyle;rounded=0;orthogonalLoop=1;jettySize=auto;html=1;exitX=0.5;exitY=1;exitDx=0;exitDy=0;entryX=0.5;entryY=0;entryDx=0;entryDy=0;" edge="1" parent="1" source="Usay778_qNBnWEz8IT-f-125" target="Usay778_qNBnWEz8IT-f-126">
          <mxGeometry relative="1" as="geometry" />
        </mxCell>
        <mxCell id="Usay778_qNBnWEz8IT-f-123" style="edgeStyle=orthogonalEdgeStyle;rounded=0;orthogonalLoop=1;jettySize=auto;html=1;exitX=0.5;exitY=1;exitDx=0;exitDy=0;entryX=0.5;entryY=0;entryDx=0;entryDy=0;" edge="1" parent="1" source="Usay778_qNBnWEz8IT-f-125" target="Usay778_qNBnWEz8IT-f-131">
          <mxGeometry relative="1" as="geometry" />
        </mxCell>
        <mxCell id="Usay778_qNBnWEz8IT-f-124" style="edgeStyle=orthogonalEdgeStyle;rounded=0;orthogonalLoop=1;jettySize=auto;html=1;exitX=1;exitY=0.5;exitDx=0;exitDy=0;entryX=0;entryY=0.5;entryDx=0;entryDy=0;" edge="1" parent="1" source="Usay778_qNBnWEz8IT-f-125" target="Usay778_qNBnWEz8IT-f-134">
          <mxGeometry relative="1" as="geometry" />
        </mxCell>
        <mxCell id="Usay778_qNBnWEz8IT-f-125" value="mongodb-router" style="rounded=1;whiteSpace=wrap;html=1;fillColor=#CCFFCC;" vertex="1" parent="1">
          <mxGeometry x="-370" y="610" width="120" height="60" as="geometry" />
        </mxCell>
        <mxCell id="Usay778_qNBnWEz8IT-f-126" value="Shard1" style="text;html=1;align=center;verticalAlign=middle;whiteSpace=wrap;rounded=0;" vertex="1" parent="1">
          <mxGeometry x="-450" y="710" width="60" height="30" as="geometry" />
        </mxCell>
        <mxCell id="Usay778_qNBnWEz8IT-f-127" value="MongoDB&lt;br&gt;secondary repl" style="shape=cylinder3;whiteSpace=wrap;html=1;boundedLbl=1;backgroundOutline=1;size=15;" vertex="1" parent="1">
          <mxGeometry x="-450" y="830" width="60" height="80" as="geometry" />
        </mxCell>
        <mxCell id="Usay778_qNBnWEz8IT-f-128" value="MongoDB&lt;br&gt;secondary repl" style="shape=cylinder3;whiteSpace=wrap;html=1;boundedLbl=1;backgroundOutline=1;size=15;" vertex="1" parent="1">
          <mxGeometry x="-450" y="920" width="60" height="80" as="geometry" />
        </mxCell>
        <mxCell id="Usay778_qNBnWEz8IT-f-129" value="" style="rounded=0;whiteSpace=wrap;html=1;dashed=1;fillColor=#B3FF66;" vertex="1" parent="1">
          <mxGeometry x="-270" y="710" width="120" height="300" as="geometry" />
        </mxCell>
        <mxCell id="Usay778_qNBnWEz8IT-f-130" value="MongoDB&lt;br&gt;primary repl" style="shape=cylinder3;whiteSpace=wrap;html=1;boundedLbl=1;backgroundOutline=1;size=15;" vertex="1" parent="1">
          <mxGeometry x="-240" y="744" width="60" height="80" as="geometry" />
        </mxCell>
        <mxCell id="Usay778_qNBnWEz8IT-f-131" value="Shard2" style="text;html=1;align=center;verticalAlign=middle;whiteSpace=wrap;rounded=0;" vertex="1" parent="1">
          <mxGeometry x="-240" y="710" width="60" height="30" as="geometry" />
        </mxCell>
        <mxCell id="Usay778_qNBnWEz8IT-f-132" value="MongoDB&lt;br&gt;secondary repl" style="shape=cylinder3;whiteSpace=wrap;html=1;boundedLbl=1;backgroundOutline=1;size=15;" vertex="1" parent="1">
          <mxGeometry x="-240" y="830" width="60" height="80" as="geometry" />
        </mxCell>
        <mxCell id="Usay778_qNBnWEz8IT-f-133" value="MongoDB&lt;br&gt;secondary repl" style="shape=cylinder3;whiteSpace=wrap;html=1;boundedLbl=1;backgroundOutline=1;size=15;" vertex="1" parent="1">
          <mxGeometry x="-240" y="920" width="60" height="80" as="geometry" />
        </mxCell>
        <mxCell id="Usay778_qNBnWEz8IT-f-134" value="mondodb-config-srv" style="rounded=0;whiteSpace=wrap;html=1;fillColor=#fff2cc;strokeColor=#d6b656;" vertex="1" parent="1">
          <mxGeometry x="-160" y="610" width="120" height="60" as="geometry" />
        </mxCell>
        <mxCell id="Usay778_qNBnWEz8IT-f-136" value="" style="rounded=0;whiteSpace=wrap;html=1;dashed=1;fillColor=#B3FF66;" vertex="1" parent="1">
          <mxGeometry x="-1030" y="710" width="120" height="130" as="geometry" />
        </mxCell>
        <mxCell id="Usay778_qNBnWEz8IT-f-137" style="edgeStyle=orthogonalEdgeStyle;rounded=0;orthogonalLoop=1;jettySize=auto;html=1;exitX=0.5;exitY=1;exitDx=0;exitDy=0;entryX=0.5;entryY=0;entryDx=0;entryDy=0;" edge="1" parent="1" source="Usay778_qNBnWEz8IT-f-138" target="Usay778_qNBnWEz8IT-f-143">
          <mxGeometry relative="1" as="geometry" />
        </mxCell>
        <mxCell id="Usay778_qNBnWEz8IT-f-138" value="pymongo-api" style="rounded=1;whiteSpace=wrap;html=1;" vertex="1" parent="1">
          <mxGeometry x="-920" y="500" width="120" height="60" as="geometry" />
        </mxCell>
        <mxCell id="Usay778_qNBnWEz8IT-f-139" value="MongoDB&lt;br&gt;primary repl" style="shape=cylinder3;whiteSpace=wrap;html=1;boundedLbl=1;backgroundOutline=1;size=15;" vertex="1" parent="1">
          <mxGeometry x="-1000" y="744" width="60" height="80" as="geometry" />
        </mxCell>
        <mxCell id="Usay778_qNBnWEz8IT-f-140" style="edgeStyle=orthogonalEdgeStyle;rounded=0;orthogonalLoop=1;jettySize=auto;html=1;exitX=0.5;exitY=1;exitDx=0;exitDy=0;entryX=0.5;entryY=0;entryDx=0;entryDy=0;" edge="1" parent="1" source="Usay778_qNBnWEz8IT-f-143" target="Usay778_qNBnWEz8IT-f-144">
          <mxGeometry relative="1" as="geometry" />
        </mxCell>
        <mxCell id="Usay778_qNBnWEz8IT-f-141" style="edgeStyle=orthogonalEdgeStyle;rounded=0;orthogonalLoop=1;jettySize=auto;html=1;exitX=0.5;exitY=1;exitDx=0;exitDy=0;entryX=0.5;entryY=0;entryDx=0;entryDy=0;" edge="1" parent="1" source="Usay778_qNBnWEz8IT-f-143" target="Usay778_qNBnWEz8IT-f-149">
          <mxGeometry relative="1" as="geometry" />
        </mxCell>
        <mxCell id="Usay778_qNBnWEz8IT-f-142" style="edgeStyle=orthogonalEdgeStyle;rounded=0;orthogonalLoop=1;jettySize=auto;html=1;exitX=1;exitY=0.5;exitDx=0;exitDy=0;entryX=0;entryY=0.5;entryDx=0;entryDy=0;" edge="1" parent="1" source="Usay778_qNBnWEz8IT-f-143" target="Usay778_qNBnWEz8IT-f-152">
          <mxGeometry relative="1" as="geometry" />
        </mxCell>
        <mxCell id="Usay778_qNBnWEz8IT-f-143" value="mongodb-router" style="rounded=1;whiteSpace=wrap;html=1;fillColor=#CCFFCC;" vertex="1" parent="1">
          <mxGeometry x="-920" y="610" width="120" height="60" as="geometry" />
        </mxCell>
        <mxCell id="Usay778_qNBnWEz8IT-f-144" value="Shard1" style="text;html=1;align=center;verticalAlign=middle;whiteSpace=wrap;rounded=0;" vertex="1" parent="1">
          <mxGeometry x="-1000" y="710" width="60" height="30" as="geometry" />
        </mxCell>
        <mxCell id="Usay778_qNBnWEz8IT-f-147" value="" style="rounded=0;whiteSpace=wrap;html=1;dashed=1;fillColor=#B3FF66;" vertex="1" parent="1">
          <mxGeometry x="-820" y="710" width="120" height="130" as="geometry" />
        </mxCell>
        <mxCell id="Usay778_qNBnWEz8IT-f-148" value="MongoDB&lt;br&gt;primary repl" style="shape=cylinder3;whiteSpace=wrap;html=1;boundedLbl=1;backgroundOutline=1;size=15;" vertex="1" parent="1">
          <mxGeometry x="-790" y="744" width="60" height="80" as="geometry" />
        </mxCell>
        <mxCell id="Usay778_qNBnWEz8IT-f-149" value="Shard2" style="text;html=1;align=center;verticalAlign=middle;whiteSpace=wrap;rounded=0;" vertex="1" parent="1">
          <mxGeometry x="-790" y="710" width="60" height="30" as="geometry" />
        </mxCell>
        <mxCell id="Usay778_qNBnWEz8IT-f-152" value="mondodb-config-srv" style="rounded=0;whiteSpace=wrap;html=1;fillColor=#fff2cc;strokeColor=#d6b656;" vertex="1" parent="1">
          <mxGeometry x="-710" y="610" width="120" height="60" as="geometry" />
        </mxCell>
        <mxCell id="Usay778_qNBnWEz8IT-f-154" value="Init schema" style="text;html=1;align=center;verticalAlign=middle;whiteSpace=wrap;rounded=0;fontSize=28;" vertex="1" parent="1">
          <mxGeometry x="-1560" y="-250" width="340" height="30" as="geometry" />
        </mxCell>
        <mxCell id="Usay778_qNBnWEz8IT-f-155" value="" style="rounded=0;whiteSpace=wrap;html=1;dashed=1;fillColor=none;" vertex="1" parent="1">
          <mxGeometry x="-1080" y="-280" width="560" height="1360" as="geometry" />
        </mxCell>
        <mxCell id="Usay778_qNBnWEz8IT-f-156" value="mongo sharding" style="text;html=1;align=center;verticalAlign=middle;whiteSpace=wrap;rounded=0;fontSize=28;" vertex="1" parent="1">
          <mxGeometry x="-1000" y="-250" width="340" height="30" as="geometry" />
        </mxCell>
        <mxCell id="Usay778_qNBnWEz8IT-f-157" value="" style="rounded=0;whiteSpace=wrap;html=1;dashed=1;fillColor=none;" vertex="1" parent="1">
          <mxGeometry x="-520" y="-280" width="520" height="1360" as="geometry" />
        </mxCell>
        <mxCell id="Usay778_qNBnWEz8IT-f-158" value="mongo sharding&amp;nbsp;&lt;br&gt;+ replicaset" style="text;html=1;align=center;verticalAlign=middle;whiteSpace=wrap;rounded=0;fontSize=28;" vertex="1" parent="1">
          <mxGeometry x="-440" y="-250" width="340" height="80" as="geometry" />
        </mxCell>
        <mxCell id="Usay778_qNBnWEz8IT-f-159" value="" style="rounded=0;whiteSpace=wrap;html=1;dashed=1;fillColor=none;" vertex="1" parent="1">
          <mxGeometry y="-280" width="520" height="1360" as="geometry" />
        </mxCell>
        <mxCell id="Usay778_qNBnWEz8IT-f-160" value="mongo sharding&amp;nbsp;&lt;br&gt;+ replicaset&lt;br&gt;+ redis" style="text;html=1;align=center;verticalAlign=middle;whiteSpace=wrap;rounded=0;fontSize=28;" vertex="1" parent="1">
          <mxGeometry x="80" y="-250" width="340" height="120" as="geometry" />
        </mxCell>
        <mxCell id="Usay778_qNBnWEz8IT-f-161" value="" style="rounded=0;whiteSpace=wrap;html=1;dashed=1;fillColor=none;" vertex="1" parent="1">
          <mxGeometry x="520" y="-280" width="840" height="1360" as="geometry" />
        </mxCell>
        <mxCell id="Usay778_qNBnWEz8IT-f-162" value="mongodb replicaset+redis+api gateway" style="text;html=1;align=center;verticalAlign=middle;whiteSpace=wrap;rounded=0;fontSize=28;" vertex="1" parent="1">
          <mxGeometry x="785" y="-270" width="340" height="120" as="geometry" />
        </mxCell>
        <mxCell id="Usay778_qNBnWEz8IT-f-163" value="" style="rounded=0;whiteSpace=wrap;html=1;dashed=1;fillColor=none;" vertex="1" parent="1">
          <mxGeometry x="1360" y="-280" width="1080" height="1360" as="geometry" />
        </mxCell>
        <mxCell id="Usay778_qNBnWEz8IT-f-164" value="mongodb replicaset+redis+api gateway+ cloud CDN" style="text;html=1;align=center;verticalAlign=middle;whiteSpace=wrap;rounded=0;fontSize=28;" vertex="1" parent="1">
          <mxGeometry x="1765" y="-270" width="340" height="120" as="geometry" />
        </mxCell>
      </root>
    </mxGraphModel>
  </diagram>
</mxfile>
